<svg width="79" height="60" viewBox="0 0 79 60" fill="none" xmlns="http://www.w3.org/2000/svg">
<path opacity="0.15" d="M71.2788 5.17219C75.7973 9.97148 78.2233 15.3542 78.2233 24.0798C78.2233 39.4341 67.4446 53.1959 51.7701 60L47.8526 53.9548C62.483 46.0408 65.3433 35.771 66.4839 29.2959C64.1281 30.5155 61.0441 30.941 58.0215 30.6602C50.1075 29.9276 43.8692 23.4306 43.8692 15.3542C43.8692 11.282 45.4869 7.37663 48.3664 4.49714C51.2459 1.61767 55.1513 -5.83171e-06 59.2235 -5.47571e-06C61.4755 0.0196786 63.7011 0.487097 65.7707 1.37505C67.8403 2.26301 69.7127 3.55377 71.2788 5.17219ZM27.4095 5.17218C31.928 9.97148 34.354 15.3542 34.354 24.0798C34.354 39.4341 23.5753 53.1959 7.90083 60L3.98331 53.9548C18.6137 46.0408 21.474 35.771 22.6146 29.2959C20.2588 30.5155 17.1748 30.941 14.1522 30.6602C6.23819 29.9276 -1.96912e-05 23.4306 -1.89851e-05 15.3542C-1.86291e-05 11.282 1.61766 7.37662 4.49714 4.49714C7.37661 1.61766 11.282 -9.66689e-06 15.3542 -9.31088e-06C17.6062 0.0196747 19.8318 0.487094 21.9014 1.37505C23.9711 2.263 25.8434 3.55376 27.4095 5.17218Z" fill="#4D4FD1"/>
</svg>
