<svg width="40" height="30" viewBox="0 0 40 30" fill="none" xmlns="http://www.w3.org/2000/svg">
<path d="M3.47225 27.4139C1.21299 25.0143 0 22.3229 0 17.9601C0 10.283 5.38934 3.40206 13.2266 0L15.1853 3.02259C7.87015 6.9796 6.44001 12.1145 5.86971 15.3521C7.0476 14.7423 8.5896 14.5295 10.1009 14.6699C14.0579 15.0362 17.177 18.2847 17.177 22.3229C17.177 24.359 16.3682 26.3117 14.9284 27.7514C13.4887 29.1912 11.536 30 9.49989 30C8.37389 29.9902 7.2611 29.7565 6.22628 29.3125C5.19146 28.8685 4.25529 28.2231 3.47225 27.4139ZM25.4069 27.4139C23.1476 25.0143 21.9346 22.3229 21.9346 17.9601C21.9346 10.283 27.324 3.40206 35.1612 0L37.12 3.02259C29.8048 6.9796 28.3746 12.1145 27.8043 15.3521C28.9822 14.7423 30.5242 14.5295 32.0355 14.6699C35.9925 15.0362 39.1116 18.2847 39.1116 22.3229C39.1116 24.359 38.3028 26.3117 36.8631 27.7514C35.4233 29.1912 33.4706 30 31.4345 30C30.3085 29.9902 29.1957 29.7565 28.1609 29.3125C27.1261 28.8685 26.1899 28.2231 25.4069 27.4139Z" fill="#4D4FD1"/>
</svg>
