<svg width="73" height="56" viewBox="0 0 73 56" fill="none" xmlns="http://www.w3.org/2000/svg">
<path d="M33.6 26.2997L10.7316 0.845122C10.2437 0.305486 9.56276 3.25521e-05 8.84114 3.25521e-05L2.54379 0C1.54266 0 0.633009 0.590545 0.221378 1.50691C-0.185172 2.42836 -0.0174701 3.50254 0.653336 4.24582L21.9921 28L0.653336 51.7491C-0.0174701 52.4974 -0.190253 53.5716 0.221378 54.488C0.633009 55.4094 1.54266 56 2.54379 56L8.84114 56C9.56276 56 10.2437 55.6895 10.7316 55.16L33.6 29.7055C34.469 28.7382 34.469 27.2618 33.6 26.2997Z" fill="#968AFF"/>
<path opacity="0.6" d="M71.8517 26.2997L48.9833 0.845122C48.4955 0.305486 47.8145 3.25521e-05 47.0929 3.25521e-05L40.7955 0C39.7944 0 38.8847 0.590545 38.4731 1.50691C38.0666 2.42836 38.2343 3.50254 38.9051 4.24582L60.2438 28L38.9051 51.7491C38.2343 52.4974 38.0615 53.5716 38.4731 54.488C38.8847 55.4094 39.7944 56 40.7955 56L47.0929 56C47.8145 56 48.4955 55.6895 48.9833 55.16L71.8517 29.7055C72.7207 28.7382 72.7207 27.2618 71.8517 26.2997Z" fill="#968AFF"/>
</svg>
